<svg xmlns="http://www.w3.org/2000/svg" width="1200" height="600" viewBox="0 0 1200 600">
  <rect width="1200" height="600" fill="#020617"/>
  <g stroke="#14b8a6" stroke-opacity="0.5" stroke-width="2" fill="none">
    <path d="M220 300 C 420 140, 560 140, 760 300"/>
    <path d="M220 300 C 420 460, 560 460, 760 300"/>
    <path d="M760 300 L 1000 180 M760 300 L 1000 300 M760 300 L 1000 420"/>
  </g>
  <rect x="140" y="250" width="160" height="100" rx="16" fill="#0f172a" stroke="#2dd4bf" stroke-width="2"/>
  <text x="220" y="308" fill="#5eead4" font-family="monospace" font-size="22" text-anchor="middle">CMS</text>
  <rect x="680" y="250" width="160" height="100" rx="16" fill="#0f172a" stroke="#3b82f6" stroke-width="2"/>
  <text x="760" y="308" fill="#93c5fd" font-family="monospace" font-size="22" text-anchor="middle">CDS</text>
  <g fill="#0f172a" stroke="#64748b" stroke-width="2">
    <rect x="980" y="150" width="120" height="60" rx="12"/>
    <rect x="980" y="270" width="120" height="60" rx="12"/>
    <rect x="980" y="390" width="120" height="60" rx="12"/>
  </g>
  <g fill="#cbd5e1" font-family="monospace" font-size="16" text-anchor="middle">
    <text x="1040" y="186">Kiosk</text>
    <text x="1040" y="306">TV</text>
    <text x="1040" y="426">Web</text>
  </g>
</svg>
